<svg id="Layer_5" enable-background="new 0 0 64 64" height="512" viewBox="0 0 64 64" width="512" xmlns="http://www.w3.org/2000/svg"><path d="m38.571 46.195-6.571-1.195v-1c0 2.209-1.791 4-4 4s-4-1.791-4-4v1l-6.571 1.195c-.275.579-.429 1.189-.429 1.805 0 2.757 2.691 5 6 5 2.086 0 3.924-.893 5-2.242 1.076 1.349 2.914 2.242 5 2.242 3.309 0 6-2.243 6-5 0-.616-.154-1.226-.429-1.805z" fill="#f0bc5e"/><path d="m34.486 2c-2.273 0-4.495.673-6.387 1.934l-.099.066-.099-.066c-1.892-1.261-4.114-1.934-6.387-1.934-6.359 0-11.514 5.155-11.514 11.514v2.486c0 .153-.004.731-.008 1.486l1.488 2.603c.341.597.52 1.273.52 1.96v-.049c.836-.628 1.875-1 3-1v-2l4-3v-3c0-.552.448-1 1-1h16c.552 0 1 .448 1 1v3l4 3v2c1.477 0 2.79.652 3.705 1.67h.018c.824-2.063 1.277-4.313 1.277-6.67v-2.486c0-6.359-5.155-11.514-11.514-11.514z" fill="#f0bc5e"/><path d="m60 31h-15.69c1.62-1.076 2.69-2.914 2.69-5 0-2.967-2.167-5.431-5-5.91v-1.59l-4-3v-2.5c0-1.103-.897-2-2-2h-16c-1.103 0-2 .897-2 2v2.5l-4 3v1.585c-.44.073-.862.211-1.272.379-.102-.3-.222-.595-.381-.871l-4.347-7.609-4.348 7.608c-.426.747-.652 1.597-.652 2.457 0 2.73 2.221 4.951 5.049 4.951.351 0 .693-.039 1.024-.109.399 2.666 2.553 4.763 5.248 5.068 1.004 4.645 4.32 8.428 8.679 10.102v.939 1 .165l-8.388 1.526c-7.887 1.434-13.612 8.293-13.612 16.309v1h54v-1c0-8.016-5.725-14.875-13.612-16.309l-8.388-1.526v-.165-1-.936c2.051-.784 3.898-2.051 5.4-3.725.049.022.104.031.152.055.792.397 1.679.606 2.566.606h18.882c1.654 0 3-1.346 3-3v-2c0-1.654-1.346-3-3-3zm-15-5c0 1.877-1.304 3.445-3.051 3.874.018-.292.051-.582.051-.874v-6.858c1.72.447 3 2 3 3.858zm-25-13h16l.001 6h-16.001zm-12.049 12c-1.627 0-2.951-1.324-2.951-2.951 0-.513.134-1.02.389-1.464l2.611-4.569 2.611 4.569c.255.445.389.951.389 1.464 0 1.627-1.324 2.951-3.049 2.951zm3.049 1.001c1.071-.802 1.794-2.022 1.946-3.421.33-.199.683-.347 1.054-.442v6.862c0 .294.026.582.044.872-1.743-.432-3.043-1.997-3.044-3.871zm5 2.999v-9.5l2-1.5v1c0 1.103.897 2 2 2h16c1.103 0 2-.897 2-2v-1l2 1.5v9.5c0 .727-.085 1.448-.214 2.159-.426.102-.841.251-1.233.447-.516.258-1.095.394-1.671.394h-6.882c-1.654 0-3 1.346-3 3s1.346 3 3 3h5.911c-2.174 1.916-4.958 3-7.911 3-6.617 0-12-5.383-12-12zm14 7c-.551 0-1-.448-1-1s.449-1 1-1h1v2zm11.031 11.658c6.605 1.201 11.485 6.729 11.935 13.342h-49.932c.45-6.613 5.331-12.141 11.936-13.342l8.515-1.548c.798 1.702 2.515 2.89 4.515 2.89s3.717-1.188 4.516-2.889zm-10.031-4.658v1c0 1.654-1.346 3-3 3s-3-1.346-3-3v-1-.332c.968.212 1.97.332 3 .332 1.021 0 2.025-.116 3-.328zm8.447-6.395c-.791-.396-1.678-.605-2.565-.605h-3.882v-2h3.882c.885 0 1.772-.209 2.565-.605.516-.258 1.095-.395 1.671-.395h13.882v4h-13.882c-.577 0-1.155-.137-1.671-.395zm21.553-.605c0 .552-.449 1-1 1h-3v-4h3c.551 0 1 .448 1 1z"/><path d="m33 21.394h2v7.211h-2z" transform="matrix(.555 -.832 .832 .555 -5.661 39.422)"/><path d="m18.394 24h7.211v2h-7.211z" transform="matrix(.832 -.555 .555 .832 -10.173 16.402)"/></svg>